<?xml version="1.0" encoding="UTF-8"?>
<svg version="1.1" xmlns="http://www.w3.org/2000/svg" width="306" height="204">
<path d="M0 0 C100.98 0 201.96 0 306 0 C306 67.32 306 134.64 306 204 C205.02 204 104.04 204 0 204 C0 136.68 0 69.36 0 0 Z " fill="#F1F3F3" transform="translate(0,0)"/>
<path d="M0 0 C1.03777588 -0.00315216 2.07555176 -0.00630432 3.14477539 -0.009552 C4.83848267 -0.00651566 4.83848267 -0.00651566 6.56640625 -0.00341797 C7.71681396 -0.00437469 8.86722168 -0.00533142 10.05249023 -0.00631714 C12.49039769 -0.00699916 14.92830695 -0.00514337 17.36621094 -0.00097656 C21.11267143 0.00437136 24.85901202 -0.00092086 28.60546875 -0.00732422 C30.96744818 -0.00666344 33.32942754 -0.00538229 35.69140625 -0.00341797 C36.82054443 -0.0054422 37.94968262 -0.00746643 39.11303711 -0.009552 C40.15081299 -0.00639984 41.18858887 -0.00324768 42.2578125 0 C43.1763501 0.00079559 44.0948877 0.00159119 45.04125977 0.00241089 C47.12890625 0.12939453 47.12890625 0.12939453 48.12890625 1.12939453 C48.20134678 3.14903652 48.21267813 5.17106577 48.19140625 7.19189453 C48.18238281 8.29662109 48.17335937 9.40134766 48.1640625 10.53955078 C48.15246094 11.39419922 48.14085937 12.24884766 48.12890625 13.12939453 C47.46890625 13.12939453 46.80890625 13.12939453 46.12890625 13.12939453 C46.12890625 14.11939453 46.12890625 15.10939453 46.12890625 16.12939453 C43.296908 17.07339395 41.53249656 17.26075133 38.59741211 17.2746582 C37.6831395 17.28103806 36.76886688 17.28741791 35.82688904 17.29399109 C34.84245316 17.29510391 33.85801727 17.29621674 32.84375 17.29736328 C31.83172012 17.30069168 30.81969025 17.30402008 29.7769928 17.30744934 C27.63771011 17.3125123 25.49841953 17.31485786 23.35913086 17.31469727 C20.07587817 17.31688821 16.79295904 17.33506288 13.50976562 17.35400391 C11.4335949 17.35693699 9.35742258 17.35892235 7.28125 17.35986328 C6.29478989 17.3670488 5.30832977 17.37423431 4.29197693 17.38163757 C3.38085648 17.37856094 2.46973602 17.37548431 1.53100586 17.37231445 C0.32546303 17.37445198 0.32546303 17.37445198 -0.9044342 17.37663269 C-2.87109375 17.12939453 -2.87109375 17.12939453 -4.87109375 15.12939453 C-6.23089099 10.64206365 -6.19796363 5.78248346 -5.87109375 1.12939453 C-4.21700919 -0.52469003 -2.27555483 0.00197098 0 0 Z " fill="#1B426B" transform="translate(60.87109375,98.87060546875)"/>
<path d="M0 0 C2.875 1.5 2.875 1.5 5 4 C5.60485913 7.47794 5.60776409 10.78447181 4 14 C3.34 14 2.68 14 2 14 C1.67 14.99 1.34 15.98 1 17 C0.01 17 -0.98 17 -2 17 C-2 19.97 -2 22.94 -2 26 C1.32901247 23.78065836 1.75023244 22.65316671 3 19 C7.99213851 19.46801299 12.12963993 21.91715737 16 25 C16 25.66 16 26.32 16 27 C16.66 27 17.32 27 18 27 C19.25664978 29.90600261 20 31.79604584 20 35 C3.5 35 -13 35 -30 35 C-30 34.34 -30 33.68 -30 33 C-29.34 33 -28.68 33 -28 33 C-28 32.01 -28 31.02 -28 30 C-27.34 30 -26.68 30 -26 30 C-25.7525 29.236875 -25.505 28.47375 -25.25 27.6875 C-23.8707363 24.72208305 -22.80742685 23.61639727 -20 22 C-19.01 22 -18.02 22 -17 22 C-17 21.34 -17 20.68 -17 20 C-13.04 19.505 -13.04 19.505 -9 19 C-8.67 20.98 -8.34 22.96 -8 25 C-7.01 25 -6.02 25 -5 25 C-5 22.36 -5 19.72 -5 17 C-5.99 17 -6.98 17 -8 17 C-10.97487421 15.16930818 -11.1016382 13.57989546 -11.9375 10.125 C-12.26018747 6.7553981 -12.06833087 6.11074313 -10.1875 3.0625 C-6.77902139 -0.15120841 -4.65168017 -0.45604708 0 0 Z " fill="#18ADCE" transform="translate(86,58)"/>
<path d="M0 0 C5.94482112 -0.02467203 11.8896126 -0.04284663 17.83447266 -0.05493164 C19.85791543 -0.05996831 21.88135456 -0.06679789 23.90478516 -0.07543945 C26.80892843 -0.08753412 29.71302369 -0.09323488 32.6171875 -0.09765625 C33.52556366 -0.10281754 34.43393982 -0.10797882 35.36984253 -0.11329651 C36.21056305 -0.11337204 37.05128357 -0.11344757 37.91748047 -0.11352539 C39.03000687 -0.11685631 39.03000687 -0.11685631 40.16500854 -0.12025452 C42 0 42 0 44 1 C44 1.66 44 2.32 44 3 C46.475 3.495 46.475 3.495 49 4 C49.495 5.485 49.495 5.485 50 7 C50.66 7 51.32 7 52 7 C53.35386936 8.65002828 54.68678142 10.3174387 56 12 C56.66 12.33 57.32 12.66 58 13 C58 13.66 58 14.32 58 15 C58.99 15 59.98 15 61 15 C62.38125018 17.76250036 62.19079306 19.94731099 62 23 C60 25 60 25 57.6875 25.375 C52.10271535 24.59572772 49.31359418 20.16871525 46 16 C45.2575 15.443125 44.515 14.88625 43.75 14.3125 C43.1725 13.879375 42.595 13.44625 42 13 C42 12.34 42 11.68 42 11 C41.34 11 40.68 11 40 11 C40 9.68 40 8.36 40 7 C39.34 7 38.68 7 38 7 C38 6.34 38 5.68 38 5 C34.7 5.66 31.4 6.32 28 7 C28 7.66 28 8.32 28 9 C13.21867882 9.55353075 13.21867882 9.55353075 7 6 C6.3503125 5.64035156 5.700625 5.28070313 5.03125 4.91015625 C3.33906451 3.96669569 1.66730143 2.98677023 0 2 C0 1.34 0 0.68 0 0 Z " fill="#0BB3DE" transform="translate(62,121)"/>
<path d="M0 0 C2.5625 0.25 2.5625 0.25 5.5625 2.25 C5.85546875 4.8515625 5.85546875 4.8515625 5.75 7.875 C5.72292969 8.87789062 5.69585937 9.88078125 5.66796875 10.9140625 C5.63316406 11.68492188 5.59835938 12.45578125 5.5625 13.25 C6.5525 12.92 7.5425 12.59 8.5625 12.25 C8.8925 9.28 9.2225 6.31 9.5625 3.25 C9.8925 3.25 10.2225 3.25 10.5625 3.25 C10.8925 5.56 11.2225 7.87 11.5625 10.25 C12.2225 10.25 12.8825 10.25 13.5625 10.25 C13.5625 10.91 13.5625 11.57 13.5625 12.25 C15.480625 12.435625 15.480625 12.435625 17.4375 12.625 C21.3125 13 21.3125 13 23.5625 15.25 C27.15929066 14.92673447 27.15929066 14.92673447 30.5625 14.25 C28.0875 13.755 28.0875 13.755 25.5625 13.25 C25.8925 12.59 26.2225 11.93 26.5625 11.25 C31.43146303 11.84619955 35.89040951 12.81976822 40.5625 14.25 C40.2325 14.91 39.9025 15.57 39.5625 16.25 C37.56526453 16.59951621 35.56439873 16.92826628 33.5625 17.25 C32.11892838 17.75376045 30.68169907 18.27592627 29.25 18.8125 C25.14253796 20.26751621 21.73012002 20.42821122 17.41015625 20.0625 C16.80042969 20.124375 16.19070312 20.18625 15.5625 20.25 C14.9025 21.24 14.2425 22.23 13.5625 23.25 C13.5625 22.26 13.5625 21.27 13.5625 20.25 C11.9125 20.25 10.2625 20.25 8.5625 20.25 C8.5625 21.9 8.5625 23.55 8.5625 25.25 C7.5725 25.25 6.5825 25.25 5.5625 25.25 C5.5625 23.27 5.5625 21.29 5.5625 19.25 C4.5725 19.25 3.5825 19.25 2.5625 19.25 C2.2325 20.57 1.9025 21.89 1.5625 23.25 C-0.4375 20.25 -0.4375 20.25 -1.4375 18.25 C-2.0975 18.25 -2.7575 18.25 -3.4375 18.25 C-3.7675 17.59 -4.0975 16.93 -4.4375 16.25 C-4.7675 16.91 -5.0975 17.57 -5.4375 18.25 C-6.0975 17.92 -6.7575 17.59 -7.4375 17.25 C-7.1178125 16.70601562 -6.798125 16.16203125 -6.46875 15.6015625 C-4.91199611 12.05169189 -4.98675568 8.54361843 -4.78125 4.7109375 C-4.30639715 1.31142276 -3.43358149 0.3521622 0 0 Z " fill="#F5F5F5" transform="translate(194.4375,93.75)"/>
<path d="M0 0 C0.66 0 1.32 0 2 0 C1.67 1.32 1.34 2.64 1 4 C2.32 3.67 3.64 3.34 5 3 C7.00293967 10.26065632 6 18.4814708 6 26 C4.0625 25.6875 4.0625 25.6875 2 25 C1.67 24.01 1.34 23.02 1 22 C-0.32 22.33 -1.64 22.66 -3 23 C-3 21.02 -3 19.04 -3 17 C-5.31 17 -7.62 17 -10 17 C-10.33 19.97 -10.66 22.94 -11 26 C-11.99 26 -12.98 26 -14 26 C-14 18.41 -14 10.82 -14 3 C-12.06125 2.87625 -10.1225 2.7525 -8.125 2.625 C-3.53630027 2.53381474 -3.53630027 2.53381474 0 0 Z " fill="#DEDEDE" transform="translate(179,81)"/>
<path d="M0 0 C2.875 -0.125 2.875 -0.125 6 0 C6.66 0.66 7.32 1.32 8 2 C7.34 3.32 6.68 4.64 6 6 C6.928125 6.2165625 6.928125 6.2165625 7.875 6.4375 C10 7 10 7 12 8 C11.125 12.875 11.125 12.875 10 14 C10.66 14.66 11.32 15.32 12 16 C12.40047444 18.32275177 12.7397104 20.65739357 13 23 C13.66 23 14.32 23 15 23 C15 23.66 15 24.32 15 25 C13.68 25.33 12.36 25.66 11 26 C11 23.69 11 21.38 11 19 C1.3668108 16.73094896 -8.1627788 16.59987365 -18 16.4375 C-20.3918596 16.39342041 -22.78359346 16.34675756 -25.17529297 16.29469299 C-26.65208236 16.26296696 -28.12898402 16.23600701 -29.60595703 16.21446228 C-32.66296142 16.15244905 -35.07718027 15.97427324 -38 15 C-39.33106622 14.65772583 -40.66400079 14.32248257 -42 14 C-41.67 13.34 -41.34 12.68 -41 12 C-25.16 12 -9.32 12 7 12 C6.34 10.35 5.68 8.7 5 7 C5 6.01 5 5.02 5 4 C4.34 4 3.68 4 3 4 C1.375 2 1.375 2 0 0 Z " fill="#D6F4F9" transform="translate(99,81)"/>
<path d="M0 0 C2.875 1.5 2.875 1.5 5 4 C5.60485913 7.47794 5.60776409 10.78447181 4 14 C3.34 14 2.68 14 2 14 C1.67 14.99 1.34 15.98 1 17 C0.01 17 -0.98 17 -2 17 C-2 19.64 -2 22.28 -2 25 C-2.99 25 -3.98 25 -5 25 C-5 22.36 -5 19.72 -5 17 C-5.99 17 -6.98 17 -8 17 C-10.97487421 15.16930818 -11.1016382 13.57989546 -11.9375 10.125 C-12.26018747 6.7553981 -12.06833087 6.11074313 -10.1875 3.0625 C-6.77902139 -0.15120841 -4.65168017 -0.45604708 0 0 Z " fill="#1E3F6C" transform="translate(86,58)"/>
<path d="M0 0 C3.375 -0.125 3.375 -0.125 7 0 C9 2 9 2 9 5 C9.99 4.67 10.98 4.34 12 4 C12.99 6.64 13.98 9.28 15 12 C12.36 11.67 9.72 11.34 7 11 C7.165 11.53625 7.33 12.0725 7.5 12.625 C8.09660212 15.45886009 8.0656368 18.1119806 8 21 C6.5 19.625 6.5 19.625 5 18 C5 17.34 5 16.68 5 16 C4.34 16 3.68 16 3 16 C3 16.99 3 17.98 3 19 C2.01 19 1.02 19 0 19 C0 18.01 0 17.02 0 16 C-2.97 15.67 -5.94 15.34 -9 15 C-9.33 15.66 -9.66 16.32 -10 17 C-10.79953138 13.71303767 -11.09658936 12.28976808 -10 9 C-7.4375 7.3125 -7.4375 7.3125 -5 6 C-4.67 6.66 -4.34 7.32 -4 8 C-3.01 8.33 -2.02 8.66 -1 9 C-0.67 6.03 -0.34 3.06 0 0 Z " fill="#F8F8F8" transform="translate(169,98)"/>
<path d="M0 0 C0.66 1.32 1.32 2.64 2 4 C8.29732313 4.58649 8.29732313 4.58649 13.8125 1.9375 C14.8953125 0.9784375 14.8953125 0.9784375 16 0 C18.3125 0.25 18.3125 0.25 20 1 C20 1.66 20 2.32 20 3 C22.475 3.495 22.475 3.495 25 4 C25.495 6.97 25.495 6.97 26 10 C12.8 10 -0.4 10 -14 10 C-14 9.67 -14 9.34 -14 9 C-10.7 8.67 -7.4 8.34 -4 8 C-6.31 8 -8.62 8 -11 8 C-9.125 3.25 -9.125 3.25 -8 1 C-5.14829211 0.01665245 -3.10359391 0 0 0 Z " fill="#06BCE9" transform="translate(76,80)"/>
<path d="M0 0 C0.99 0.33 1.98 0.66 3 1 C3 3.64 3 6.28 3 9 C3.66 8.67 4.32 8.34 5 8 C7.6723621 7.86584528 10.32250488 7.95681459 13 8 C13 8.66 13 9.32 13 10 C13.66 10 14.32 10 15 10 C16.125 17.625 16.125 17.625 15 21 C14.34 21 13.68 21 13 21 C12.67 21.99 12.34 22.98 12 24 C8.51836721 24.20480193 5.62657465 24.1944542 2.28125 23.15625 C-0.47898003 20.54726545 -0.36339926 19.79612168 -0.48828125 16.11328125 C-0.45504764 14.17908541 -0.39542126 12.24520331 -0.3125 10.3125 C-0.28994141 9.32443359 -0.26738281 8.33636719 -0.24414062 7.31835938 C-0.18517988 4.87738441 -0.10295048 2.43945132 0 0 Z " fill="#2E2E2E" transform="translate(147,83)"/>
<path d="M0 0 C0.66 0 1.32 0 2 0 C2.05807043 3.10408807 2.09361914 6.2080364 2.125 9.3125 C2.14175781 10.19357422 2.15851563 11.07464844 2.17578125 11.98242188 C2.18222656 12.82998047 2.18867188 13.67753906 2.1953125 14.55078125 C2.20578613 15.33106689 2.21625977 16.11135254 2.22705078 16.9152832 C2 19 2 19 0 22 C-2.09375 22.546875 -2.09375 22.546875 -4.5 22.75 C-5.69109375 22.86601563 -5.69109375 22.86601563 -6.90625 22.984375 C-9 23 -9 23 -11 22 C-11 21.34 -11 20.68 -11 20 C-11.66 20 -12.32 20 -13 20 C-14.36952673 17.26094655 -14.12621361 15.02912668 -14 12 C-13.67 11.34 -13.34 10.68 -13 10 C-12.34 10 -11.68 10 -11 10 C-11 9.01 -11 8.02 -11 7 C-9.741875 6.979375 -8.48375 6.95875 -7.1875 6.9375 C-6.47980469 6.92589844 -5.77210938 6.91429688 -5.04296875 6.90234375 C-3 7 -3 7 0 8 C0 5.36 0 2.72 0 0 Z " fill="#0A0A0A" transform="translate(219,84)"/>
<path d="M0 0 C2.32421875 0.41015625 2.32421875 0.41015625 4.51171875 2.47265625 C5.77569204 7.04240583 5.13971504 10.53931182 3.26171875 14.84765625 C0.70351611 16.9107229 -1.50849534 16.97729794 -4.734375 16.78125 C-6.67578125 16.41015625 -6.67578125 16.41015625 -9.17578125 14.97265625 C-11.33837144 11.27823135 -11.53141256 7.59581211 -10.67578125 3.41015625 C-7.90512061 -0.57211162 -4.49426884 -0.15090246 0 0 Z " fill="#4C4C4C" transform="translate(139.67578125,90.58984375)"/>
<path d="M0 0 C6.96003447 -0.02526838 13.9200572 -0.04283222 20.88012695 -0.05493164 C23.24992312 -0.05997341 25.61971615 -0.06680665 27.98950195 -0.07543945 C31.38754039 -0.0875119 34.78553785 -0.09322971 38.18359375 -0.09765625 C39.25024765 -0.10281754 40.31690155 -0.10797882 41.4158783 -0.11329651 C42.88729027 -0.11340981 42.88729027 -0.11340981 44.38842773 -0.11352539 C45.25668686 -0.115746 46.12494598 -0.11796661 47.01951599 -0.12025452 C49 0 49 0 50 1 C50.495 6.445 50.495 6.445 51 12 C39.78 11.67 28.56 11.34 17 11 C17 10.67 17 10.34 17 10 C24.92 10 32.84 10 41 10 C41 7.36 41 4.72 41 2 C27.8 2 14.6 2 1 2 C0.67 2.66 0.34 3.32 0 4 C0 2.68 0 1.36 0 0 Z " fill="#0C3868" transform="translate(55,102)"/>
<path d="M0 0 C3.3125 2.1875 3.3125 2.1875 6 5 C6 6.65 6 8.3 6 10 C1.71 10 -2.58 10 -7 10 C-7 10.66 -7 11.32 -7 12 C-3.37 12.33 0.26 12.66 4 13 C3 16 3 16 1 17 C-2.7621596 17.34834811 -5.14128053 17.50642431 -8.4375 15.5625 C-10.7483523 11.77270223 -10.91951097 8.3201162 -10 4 C-7.05412011 0.54911213 -4.51990291 -0.99217381 0 0 Z " fill="#121212" transform="translate(234,90)"/>
<path d="M0 0 C4.86896303 0.59619955 9.32790951 1.56976822 14 3 C13.67 3.66 13.34 4.32 13 5 C11.00276453 5.34951621 9.00189873 5.67826628 7 6 C5.55642838 6.50376045 4.11919907 7.02592627 2.6875 7.5625 C-1.41996204 9.01751621 -4.83237998 9.17821122 -9.15234375 8.8125 C-9.76207031 8.874375 -10.37179688 8.93625 -11 9 C-11.99 10.485 -11.99 10.485 -13 12 C-13 11.01 -13 10.02 -13 9 C-14.65 9 -16.3 9 -18 9 C-18 10.65 -18 12.3 -18 14 C-18.99 14 -19.98 14 -21 14 C-21.125 8.25 -21.125 8.25 -20 6 C-19.01 6 -18.02 6 -17 6 C-17.33 5.01 -17.66 4.02 -18 3 C-16 1 -16 1 -13.46875 0.953125 C-11.99921875 1.10007812 -11.99921875 1.10007812 -10.5 1.25 C-9.5203125 1.33765625 -8.540625 1.4253125 -7.53125 1.515625 C-5 2 -5 2 -3 4 C0.59679066 3.67673447 0.59679066 3.67673447 4 3 C1.525 2.505 1.525 2.505 -1 2 C-0.67 1.34 -0.34 0.68 0 0 Z " fill="#F6F6F6" transform="translate(221,105)"/>
<path d="M0 0 C14.19 0 28.38 0 43 0 C43 0.33 43 0.66 43 1 C45.31 1 47.62 1 50 1 C50.495 3.97 50.495 3.97 51 7 C49.02 7 47.04 7 45 7 C45 6.34 45 5.68 45 5 C23.22 4.505 23.22 4.505 1 4 C0.67 2.68 0.34 1.36 0 0 Z " fill="#D5F7FB" transform="translate(61,117)"/>
<path d="M0 0 C4.62 0 9.24 0 14 0 C14 0.99 14 1.98 14 3 C10.37 3 6.74 3 3 3 C3 5.31 3 7.62 3 10 C5.97 10 8.94 10 12 10 C11.67 10.99 11.34 11.98 11 13 C8.36 13 5.72 13 3 13 C3 16.3 3 19.6 3 23 C2.01 23 1.02 23 0 23 C0 15.41 0 7.82 0 0 Z " fill="#2F2F2F" transform="translate(165,84)"/>
<path d="M0 0 C17.16 0 34.32 0 52 0 C52 3.3 52 6.6 52 10 C51.34 9.67 50.68 9.34 50 9 C50 6.69 50 4.38 50 2 C33.5 2 17 2 0 2 C0 1.34 0 0.68 0 0 Z " fill="#183251" transform="translate(56,99)"/>
<path d="M0 0 C1.32 0 2.64 0 4 0 C4 6.6 4 13.2 4 20 C-0.01886337 22.00943169 -1.65676602 22.36963693 -6 22 C-6.99 21.34 -7.98 20.68 -9 20 C-9.1875 17.375 -9.1875 17.375 -9 15 C-8.01 15 -7.02 15 -6 15 C-5.67 15.99 -5.34 16.98 -5 18 C-3.35 18.33 -1.7 18.66 0 19 C0 12.73 0 6.46 0 0 Z " fill="#3E3E3E" transform="translate(123,84)"/>
<path d="M0 0 C1.8871875 0.0309375 1.8871875 0.0309375 3.8125 0.0625 C3.8125 0.7225 3.8125 1.3825 3.8125 2.0625 C4.4725 2.0625 5.1325 2.0625 5.8125 2.0625 C6.86226964 5.21180893 6.91381595 7.45064456 6.875 10.75 C6.86597656 11.74386719 6.85695312 12.73773438 6.84765625 13.76171875 C6.83605469 14.52097656 6.82445312 15.28023437 6.8125 16.0625 C5.8225 16.0625 4.8325 16.0625 3.8125 16.0625 C3.8125 12.4325 3.8125 8.8025 3.8125 5.0625 C-0.17782841 4.45985687 -0.17782841 4.45985687 -4.1875 4.0625 C-5.92706658 5.80206658 -5.55940386 8.2561622 -5.75 10.625 C-5.83378906 11.63691406 -5.91757813 12.64882812 -6.00390625 13.69140625 C-6.06449219 14.47386719 -6.12507812 15.25632812 -6.1875 16.0625 C-7.1775 16.0625 -8.1675 16.0625 -9.1875 16.0625 C-9.24156122 14.12530622 -9.28032025 12.18768079 -9.3125 10.25 C-9.33570313 9.17105469 -9.35890625 8.09210938 -9.3828125 6.98046875 C-9.1875 4.0625 -9.1875 4.0625 -7.1875 1.0625 C-4.43671116 0.14557039 -2.82801087 -0.04636083 0 0 Z " fill="#272727" transform="translate(196.1875,90.9375)"/>
<path d="M0 0 C0.33 1.98 0.66 3.96 1 6 C3.64 6 6.28 6 9 6 C9.99 4.02 10.98 2.04 12 0 C16.99213851 0.46801299 21.12963993 2.91715737 25 6 C25 6.66 25 7.32 25 8 C25.66 8 26.32 8 27 8 C27 8.66 27 9.32 27 10 C26.01 10 25.02 10 24 10 C23.505 8.515 23.505 8.515 23 7 C21.67696283 6.6278958 20.34262065 6.29369827 19 6 C18.505 5.01 18.505 5.01 18 4 C15.5084595 4.44491795 14.19733044 4.81728663 12.3125 6.5625 C8.7338258 8.78708126 5.1085925 8.23703418 1 8 C0.34 6.35 -0.32 4.7 -1 3 C-3.64 3.33 -6.28 3.66 -9 4 C-9.33 4.99 -9.66 5.98 -10 7 C-12.21701147 8.58965571 -14.57862473 9.72327486 -17 11 C-15.74155722 7.11980141 -14.57583797 5.0588158 -11 3 C-10.01 3 -9.02 3 -8 3 C-8 2.34 -8 1.68 -8 1 C-5.07175348 0.02391783 -3.04386724 -0.08226668 0 0 Z " fill="#49B9D1" transform="translate(77,77)"/>
<path d="M0 0 C0.99 0 1.98 0 3 0 C3 0.99 3 1.98 3 3 C5.475 3.99 5.475 3.99 8 5 C8 5.66 8 6.32 8 7 C8.598125 7.103125 9.19625 7.20625 9.8125 7.3125 C12.42368447 8.13315798 13.44318272 8.74261495 15 11 C15.1875 14.1875 15.1875 14.1875 15 17 C10.12114941 16.58181281 8.22040297 14.55070071 5 11 C4.2575 10.38125 3.515 9.7625 2.75 9.125 C0.36243748 6.22581694 0.28285401 3.67710214 0 0 Z " fill="#04BBE7" transform="translate(106,127)"/>
<path d="M0 0 C1.1725131 0.95117134 2.33787015 1.91117009 3.5 2.875 C4.1496875 3.40867188 4.799375 3.94234375 5.46875 4.4921875 C6.22671875 5.23855469 6.22671875 5.23855469 7 6 C7 6.66 7 7.32 7 8 C7.99 8 8.98 8 10 8 C11.38125018 10.76250036 11.19079306 12.94731099 11 16 C9 18 9 18 6.6875 18.375 C1.12952662 17.59946883 -1.7338108 13.18480491 -5 9 C-6.64783606 7.31471312 -8.31002677 5.64302953 -10 4 C-9.67 3.01 -9.34 2.02 -9 1 C-8.32904297 1.79664063 -8.32904297 1.79664063 -7.64453125 2.609375 C-4.31797406 6.49626912 -1.07950557 9.88037809 3 13 C3.33 13.66 3.66 14.32 4 15 C6.02463255 15.65213292 6.02463255 15.65213292 8 16 C8 14.02 8 12.04 8 10 C7.01 9.67 6.02 9.34 5 9 C4.67 8.34 4.34 7.68 4 7 C3.01 6.67 2.02 6.34 1 6 C0.67 4.02 0.34 2.04 0 0 Z " fill="#31A8C8" transform="translate(113,128)"/>
<path d="M0 0 C16.83 0.33 33.66 0.66 51 1 C51.495 4.465 51.495 4.465 52 8 C52.33 5.36 52.66 2.72 53 0 C53.33 0 53.66 0 54 0 C54 3.96 54 7.92 54 12 C53.34 12 52.68 12 52 12 C52 12.99 52 13.98 52 15 C51.01 14.67 50.02 14.34 49 14 C49.66 14 50.32 14 51 14 C50.505 13.01 50.505 13.01 50 12 C49.505 7.545 49.505 7.545 49 3 C33.16 3 17.32 3 1 3 C0.67 2.01 0.34 1.02 0 0 Z " fill="#244670" transform="translate(55,100)"/>
<path d="M0 0 C0.99 0.33 1.98 0.66 3 1 C3.33 5.29 3.66 9.58 4 14 C4.33 14 4.66 14 5 14 C5.144375 15.11375 5.28875 16.2275 5.4375 17.375 C5.78372035 20.82142047 5.78372035 20.82142047 7 23 C6.01 23.33 5.02 23.66 4 24 C4.99 24.99 5.98 25.98 7 27 C-0.625 28.25 -0.625 28.25 -4 26 C-3.67 25.34 -3.34 24.68 -3 24 C-2.01 24 -1.02 24 0 24 C0.90833969 21.27498092 1.18359985 19.37766029 1.31640625 16.55078125 C1.35830078 15.70322266 1.40019531 14.85566406 1.44335938 13.98242188 C1.50233398 12.66081055 1.50233398 12.66081055 1.5625 11.3125 C1.62727539 9.97348633 1.62727539 9.97348633 1.69335938 8.60742188 C1.79935353 6.40509892 1.90142051 4.20266527 2 2 C1.34 2 0.68 2 0 2 C0 4.64 0 7.28 0 10 C-0.99 9.67 -1.98 9.34 -3 9 C-2.34 9 -1.68 9 -1 9 C-1.020625 7.700625 -1.04125 6.40125 -1.0625 5.0625 C-1.08399454 3.70834367 -1.07148199 2.35243917 -1 1 C-0.67 0.67 -0.34 0.34 0 0 Z " fill="#C3C3C3" transform="translate(219,82)"/>
<path d="M0 0 C3 0.25 3 0.25 5 2.25 C4.42307692 8.82692308 4.42307692 8.82692308 3 10.25 C0.0625 10.4375 0.0625 10.4375 -3 10.25 C-5 8.25 -5 8.25 -5.25 5.25 C-4.90584825 1.120179 -4.129821 0.34415175 0 0 Z " fill="#DADADA" transform="translate(137,93.75)"/>
<path d="M0 0 C4.87440007 0.48744001 9.33909281 1.57319168 14 3 C13.67 3.66 13.34 4.32 13 5 C11.00276453 5.34951621 9.00189873 5.67826628 7 6 C5.59976558 6.53018585 4.20420589 7.07281508 2.8125 7.625 C-2.56389436 9.52417002 -7.45516238 8.86022715 -13 8 C-12.67 7.01 -12.34 6.02 -12 5 C-12 5.66 -12 6.32 -12 7 C-6.33895411 6.50341703 -2.12325529 5.45489316 3 3 C1.68 2.34 0.36 1.68 -1 1 C-0.67 0.67 -0.34 0.34 0 0 Z " fill="#FCFCFC" transform="translate(221,105)"/>
<path d="M0 0 C3.625 0.375 3.625 0.375 7 1 C7.125 3.875 7.125 3.875 7 7 C5 9 5 9 2.5 9.25 C0 9 0 9 -2 7 C-2.25 4.5 -2.25 4.5 -2 2 C-1.34 1.34 -0.68 0.68 0 0 Z " fill="#F2F2F2" transform="translate(211,94)"/>
<path d="M0 0 C3.71599191 -0.20086443 4.77208445 -0.1519437 8 2 C7.125 6.75 7.125 6.75 6 9 C4.00045254 9.04254356 1.99958364 9.04080783 0 9 C-1 8 -1 8 -1.125 5.0625 C-1 2 -1 2 0 0 Z " fill="#EBEBEB" transform="translate(152,94)"/>
<path d="M0 0 C-0.33 0.99 -0.66 1.98 -1 3 C-2.65 3.66 -4.3 4.32 -6 5 C-6.33 8.63 -6.66 12.26 -7 16 C-7.99 16 -8.98 16 -10 16 C-10.0810206 13.89646505 -10.13919907 11.79204048 -10.1875 9.6875 C-10.22230469 8.51574219 -10.25710937 7.34398438 -10.29296875 6.13671875 C-10 3 -10 3 -8.67578125 1.14453125 C-5.50720605 -1.01955391 -3.53203455 -1.09614865 0 0 Z " fill="#3A3A3A" transform="translate(252,91)"/>
<path d="M0 0 C13.86 0 27.72 0 42 0 C42 0.99 42 1.98 42 3 C40.6078125 3.2165625 40.6078125 3.2165625 39.1875 3.4375 C35.99274889 3.92100111 35.99274889 3.92100111 33 5 C33.33 3.68 33.66 2.36 34 1 C22.78 1.33 11.56 1.66 0 2 C0 1.34 0 0.68 0 0 Z " fill="#2EACC0" transform="translate(62,121)"/>
<path d="M0 0 C0.33 0.99 0.66 1.98 1 3 C3.68264684 4.45007937 5.27331661 5.11784055 8.3125 4.625 C8.869375 4.41875 9.42625 4.2125 10 4 C10 5.98 10 7.96 10 10 C2.25 11.125 2.25 11.125 0 10 C-0.44921875 7.96875 -0.44921875 7.96875 -0.6875 5.5 C-0.77386719 4.6853125 -0.86023438 3.870625 -0.94921875 3.03125 C-0.96597656 2.3609375 -0.98273438 1.690625 -1 1 C-0.67 0.67 -0.34 0.34 0 0 Z " fill="#CBCBCB" transform="translate(190,109)"/>
<path d="M0 0 C-0.99 0.66 -1.98 1.32 -3 2 C-2.175 2.433125 -1.35 2.86625 -0.5 3.3125 C0.7375 4.1478125 0.7375 4.1478125 2 5 C2 5.99 2 6.98 2 8 C-1.3 8 -4.6 8 -8 8 C-8 7.01 -8 6.02 -8 5 C-8.66 4.67 -9.32 4.34 -10 4 C-6.58908673 0.88145073 -4.68377325 -0.53528837 0 0 Z " fill="#535353" transform="translate(234,90)"/>
<path d="M0 0 C6.875 0.875 6.875 0.875 8 2 C10.59153107 2.15996166 13.1595202 2.25938697 15.75390625 2.31640625 C16.91707619 2.3475779 16.91707619 2.3475779 18.10374451 2.37937927 C20.58990308 2.44495802 23.07617045 2.50379799 25.5625 2.5625 C27.24415204 2.60567733 28.92579294 2.64929136 30.60742188 2.69335938 C34.73816871 2.80064779 38.86902536 2.90189132 43 3 C43 3.33 43 3.66 43 4 C28.15 4 13.3 4 -2 4 C-1.34 3.67 -0.68 3.34 0 3 C0 2.01 0 1.02 0 0 Z " fill="#F7FEFE" transform="translate(56,94)"/>
<path d="M0 0 C0 1.32 0 2.64 0 4 C0.66 4 1.32 4 2 4 C1.67 4.99 1.34 5.98 1 7 C0.01 6.34 -0.98 5.68 -2 5 C-1.67 4.01 -1.34 3.02 -1 2 C-6.47446941 2.11601225 -6.47446941 2.11601225 -10.875 4.8125 C-11.24625 5.534375 -11.6175 6.25625 -12 7 C-12.5878125 8.11375 -12.5878125 8.11375 -13.1875 9.25 C-13.455625 9.8275 -13.72375 10.405 -14 11 C-15.342 3.558 -15.342 3.558 -13.8125 1.0625 C-9.71299164 -1.34066007 -4.34790887 -2.17395443 0 0 Z " fill="#F5F5F5" transform="translate(254,89)"/>
<path d="M0 0 C0.33 0 0.66 0 1 0 C1 3.63 1 7.26 1 11 C0.34 10.34 -0.32 9.68 -1 9 C-1.99 9 -2.98 9 -4 9 C-3.67 8.34 -3.34 7.68 -3 7 C-5.97851562 7.04882812 -5.97851562 7.04882812 -8.95703125 7.09765625 C-11 7 -11 7 -14 6 C-14 5.34 -14 4.68 -14 4 C-9.38 4 -4.76 4 0 4 C0 2.68 0 1.36 0 0 Z " fill="#D5D5D5" transform="translate(241,96)"/>
<path d="M0 0 C0.33 0.99 0.66 1.98 1 3 C-2 5 -2 5 -4 5 C-4.06058594 5.98742187 -4.12117187 6.97484375 -4.18359375 7.9921875 C-4.26738281 9.27351563 -4.35117188 10.55484375 -4.4375 11.875 C-4.51871094 13.15117188 -4.59992188 14.42734375 -4.68359375 15.7421875 C-5 19 -5 19 -6 21 C-6.99 21 -7.98 21 -9 21 C-9 20.34 -9 19.68 -9 19 C-9.66 18.67 -10.32 18.34 -11 18 C-10.67 17.34 -10.34 16.68 -10 16 C-9.01 16 -8.02 16 -7 16 C-7.02320313 15.22914062 -7.04640625 14.45828125 -7.0703125 13.6640625 C-7.08835938 12.66117188 -7.10640625 11.65828125 -7.125 10.625 C-7.14820313 9.62726563 -7.17140625 8.62953125 -7.1953125 7.6015625 C-7 5 -7 5 -5 3 C-4.319375 2.835 -3.63875 2.67 -2.9375 2.5 C-2.298125 2.335 -1.65875 2.17 -1 2 C-0.67 1.34 -0.34 0.68 0 0 Z " fill="#EBEBEB" transform="translate(252,91)"/>
<path d="M0 0 C0.95169067 0.23771118 0.95169067 0.23771118 1.92260742 0.48022461 C6.0327829 1.1744383 10.07638129 1.23449356 14.23828125 1.31640625 C15.11904831 1.33718735 15.99981537 1.35796844 16.90727234 1.37937927 C19.70893879 1.44453937 22.51069557 1.50360321 25.3125 1.5625 C27.21680606 1.60571715 29.12110312 1.64933244 31.02539062 1.69335938 C35.68350218 1.80018623 40.34170422 1.9015474 45 2 C45 2.33 45 2.66 45 3 C30.15 3 15.3 3 0 3 C0 2.01 0 1.02 0 0 Z " fill="#061F43" transform="translate(59,112)"/>
<path d="M0 0 C3.20863349 -0.35651483 4.64001006 -0.23683549 7.375 1.5625 C9 4 9 4 9 7.5625 C8 11 8 11 6.3125 12.9375 C3.40913094 14.27148038 1.15869424 14.21536552 -2 14 C-2.33 13.34 -2.66 12.68 -3 12 C0.465 11.505 0.465 11.505 4 11 C4.9363921 7.70054409 4.9363921 7.70054409 5 4 C2.69931981 1.50789479 2.69931981 1.50789479 0 0 Z " fill="#171717" transform="translate(136,92)"/>
<path d="M0 0 C5.61 0 11.22 0 17 0 C16.67 0.99 16.34 1.98 16 3 C14.783125 2.896875 13.56625 2.79375 12.3125 2.6875 C8.74855793 2.6875 8.09822098 2.92685672 5.0625 5.1875 C3.02283417 7.96886249 2.2909126 9.60601966 2 13 C1.67 13 1.34 13 1 13 C1.33 10.03 1.66 7.06 2 4 C1.34 4 0.68 4 0 4 C0 2.68 0 1.36 0 0 Z " fill="#C5D6E0" transform="translate(72,56)"/>
<path d="M0 0 C0.33 0.66 0.66 1.32 1 2 C3.58605332 2.4683265 3.58605332 2.4683265 6.5625 2.625 C8.08037109 2.73714844 8.08037109 2.73714844 9.62890625 2.8515625 C10.80259766 2.92503906 10.80259766 2.92503906 12 3 C11 6 11 6 9 7 C2.70982839 7.5824233 2.70982839 7.5824233 -0.4375 5 C-0.953125 4.34 -1.46875 3.68 -2 3 C-1.34 2.67 -0.68 2.34 0 2 C0 1.34 0 0.68 0 0 Z " fill="#383838" transform="translate(226,100)"/>
<path d="M0 0 C0 1.65 0 3.3 0 5 C-0.33 4.34 -0.66 3.68 -1 3 C-3.64 3.33 -6.28 3.66 -9 4 C-9.33 4.99 -9.66 5.98 -10 7 C-12.21701147 8.58965571 -14.57862473 9.72327486 -17 11 C-15.74155722 7.11980141 -14.57583797 5.0588158 -11 3 C-10.01 3 -9.02 3 -8 3 C-8 2.34 -8 1.68 -8 1 C-5.07175348 0.02391783 -3.04386724 -0.08226668 0 0 Z " fill="#34AAC1" transform="translate(77,77)"/>
<path d="M0 0 C0 0.66 0 1.32 0 2 C-2.64 2.33 -5.28 2.66 -8 3 C-8 2.01 -8 1.02 -8 0 C-10.97851562 0.09765625 -10.97851562 0.09765625 -13.95703125 0.1953125 C-16 0 -16 0 -19 -2 C-17.25093341 -2.19601608 -15.50068154 -2.38147403 -13.75 -2.5625 C-12.77546875 -2.66691406 -11.8009375 -2.77132812 -10.796875 -2.87890625 C-6.56004691 -3.06234434 -3.69805017 -1.98109831 0 0 Z " fill="#F3FCFA" transform="translate(96,133)"/>
<path d="M0 0 C0.66 0 1.32 0 2 0 C2 0.99 2 1.98 2 3 C3.32 2.67 4.64 2.34 6 2 C5.67 5.3 5.34 8.6 5 12 C4.01 10.68 3.02 9.36 2 8 C1.34 8 0.68 8 0 8 C0 10.64 0 13.28 0 16 C-0.33 16 -0.66 16 -1 16 C-1.22384382 14.27277272 -1.42839969 12.54303993 -1.625 10.8125 C-1.74101563 9.84957031 -1.85703125 8.88664062 -1.9765625 7.89453125 C-2.00194942 4.75924677 -1.34359283 2.80513465 0 0 Z " fill="#E6EEF2" transform="translate(50,96)"/>
<path d="M0 0 C0.66 0 1.32 0 2 0 C2 0.99 2 1.98 2 3 C2.66 3 3.32 3 4 3 C4 2.01 4 1.02 4 0 C4.66 0.33 5.32 0.66 6 1 C6 4.66666667 6 8.33333333 6 12 C5.34 12 4.68 12 4 12 C3.67 11.34 3.34 10.68 3 10 C3 10.66 3 11.32 3 12 C2.01 12 1.02 12 0 12 C0 8.04 0 4.08 0 0 Z " fill="#DADADA" transform="translate(183,107)"/>
<path d="M0 0 C7.26 0 14.52 0 22 0 C21.01 0.33 20.02 0.66 19 1 C19 1.66 19 2.32 19 3 C16.77110504 3.05428973 14.54182529 3.09292338 12.3125 3.125 C10.45044922 3.15980469 10.45044922 3.15980469 8.55078125 3.1953125 C5.18762143 3.01032021 3.0014413 2.45767895 0 1 C0 0.67 0 0.34 0 0 Z " fill="#38B2C4" transform="translate(71,127)"/>
<path d="M0 0 C1.1725131 0.95117134 2.33787015 1.91117009 3.5 2.875 C4.47453125 3.67550781 4.47453125 3.67550781 5.46875 4.4921875 C5.9740625 4.98976562 6.479375 5.48734375 7 6 C7 6.66 7 7.32 7 8 C7.99 8 8.98 8 10 8 C11.35439668 10.70879335 11.06501451 13.00933268 11 16 C10.01 16 9.02 16 8 16 C8 14.02 8 12.04 8 10 C7.01 9.67 6.02 9.34 5 9 C4.67 8.34 4.34 7.68 4 7 C3.01 6.67 2.02 6.34 1 6 C0.67 4.02 0.34 2.04 0 0 Z " fill="#2EAFD0" transform="translate(113,128)"/>
<path d="M0 0 C5.28 0 10.56 0 16 0 C16.33 0.66 16.66 1.32 17 2 C7.45889923 5.46331772 7.45889923 5.46331772 3.93359375 4.34375 C2.3125 3.25 2.3125 3.25 0 1 C0 0.67 0 0.34 0 0 Z " fill="#15B6E5" transform="translate(64,123)"/>
<path d="M0 0 C3.3 0 6.6 0 10 0 C10 0.33 10 0.66 10 1 C7.03 1 4.06 1 1 1 C1 3.31 1 5.62 1 8 C3.97 8 6.94 8 10 8 C9.67 8.99 9.34 9.98 9 11 C4.545 11.495 4.545 11.495 0 12 C0 8.04 0 4.08 0 0 Z " fill="#181818" transform="translate(167,86)"/>
<path d="M0 0 C0.66 0 1.32 0 2 0 C2.33 1.65 2.66 3.3 3 5 C2.34 5 1.68 5 1 5 C0.731875 5.969375 0.46375 6.93875 0.1875 7.9375 C-0.204375 8.948125 -0.59625 9.95875 -1 11 C-1.99 11.33 -2.98 11.66 -4 12 C-4 9.03 -4 6.06 -4 3 C-3.01 2.67 -2.02 2.34 -1 2 C-0.67 1.34 -0.34 0.68 0 0 Z " fill="#E0F2FB" transform="translate(88,72)"/>
<path d="M0 0 C0.66 0 1.32 0 2 0 C2 5.28 2 10.56 2 16 C1.01 16 0.02 16 -1 16 C-1.02692484 13.70839681 -1.04636124 11.41670454 -1.0625 9.125 C-1.07410156 7.84882812 -1.08570313 6.57265625 -1.09765625 5.2578125 C-1 2 -1 2 0 0 Z " fill="#262626" transform="translate(183,91)"/>
<path d="M0 0 C2.625 0.1875 2.625 0.1875 5.625 2.1875 C5.295 3.5075 4.965 4.8275 4.625 6.1875 C4.295 5.5275 3.965 4.8675 3.625 4.1875 C3.295 6.1675 2.965 8.1475 2.625 10.1875 C2.295 9.5275 1.965 8.8675 1.625 8.1875 C0.635 7.8575 -0.355 7.5275 -1.375 7.1875 C-1.375 5.5375 -1.375 3.8875 -1.375 2.1875 C-2.035 1.8575 -2.695 1.5275 -3.375 1.1875 C-2.375 0.1875 -2.375 0.1875 0 0 Z " fill="#EAEAEA" transform="translate(194.375,93.8125)"/>
<path d="M0 0 C0.66 0.66 1.32 1.32 2 2 C2.99 1.67 3.98 1.34 5 1 C5 4.3 5 7.6 5 11 C3.68 11.33 2.36 11.66 1 12 C1 10.68 1 9.36 1 8 C0.01 8.495 0.01 8.495 -1 9 C-0.67 6.03 -0.34 3.06 0 0 Z " fill="#F9F1EC" transform="translate(91,63)"/>
<path d="M0 0 C2.76460993 1.08908876 5.41193439 2.21017061 8.0625 3.5625 C13.09066885 5.77489429 18.58506292 5.74214585 24 6 C24 6.33 24 6.66 24 7 C16.08 7.495 16.08 7.495 8 8 C7.67 7.01 7.34 6.02 7 5 C6.01 5 5.02 5 4 5 C4 4.34 4 3.68 4 3 C2.68 3 1.36 3 0 3 C0 2.01 0 1.02 0 0 Z " fill="#BFF1FC" transform="translate(64,124)"/>
<path d="M0 0 C0.99 0 1.98 0 3 0 C3 1.98 3 3.96 3 6 C1.02 6.33 -0.96 6.66 -3 7 C-3 6.34 -3 5.68 -3 5 C-3.99 5 -4.98 5 -6 5 C-6 3.68 -6 2.36 -6 1 C-4.7934375 1.0309375 -4.7934375 1.0309375 -3.5625 1.0625 C-1.06645115 1.29633621 -1.06645115 1.29633621 0 0 Z " fill="#CCCCCC" transform="translate(210,113)"/>
<path d="M0 0 C0.66 0 1.32 0 2 0 C2.66 1.32 3.32 2.64 4 4 C5.4370809 4.05422947 6.87475462 4.09289723 8.3125 4.125 C9.51326172 4.15980469 9.51326172 4.15980469 10.73828125 4.1953125 C13.28388576 4.15817322 13.28388576 4.15817322 16 2 C15.34 3.65 14.68 5.3 14 7 C13.030625 6.979375 12.06125 6.95875 11.0625 6.9375 C8.12534105 6.64381501 8.12534105 6.64381501 7 8 C5.33382885 8.04063832 3.66611905 8.042721 2 8 C1.34 5.36 0.68 2.72 0 0 Z " fill="#15A7DA" transform="translate(74,80)"/>
<path d="M0 0 C5.75 -0.125 5.75 -0.125 8 1 C8 1.66 8 2.32 8 3 C6.35 3 4.7 3 3 3 C3 3.66 3 4.32 3 5 C4.98 4.67 6.96 4.34 9 4 C9.33 5.65 9.66 7.3 10 9 C9.67 8.01 9.34 7.02 9 6 C7.3603125 6.061875 7.3603125 6.061875 5.6875 6.125 C2 6 2 6 -1 4 C-0.67 2.68 -0.34 1.36 0 0 Z " fill="#163455" transform="translate(80,58)"/>
<path d="M0 0 C0.33 0 0.66 0 1 0 C1.33 1.65 1.66 3.3 2 5 C2.33 3.35 2.66 1.7 3 0 C3.33 0 3.66 0 4 0 C4.66 1.98 5.32 3.96 6 6 C7.65 6.33 9.3 6.66 11 7 C9.02 7.99 9.02 7.99 7 9 C8.32 9.66 9.64 10.32 11 11 C5.25 11.125 5.25 11.125 3 10 C3 9.34 3 8.68 3 8 C2.34 8 1.68 8 1 8 C-0.35439668 5.29120665 -0.06501451 2.99066732 0 0 Z " fill="#606060" transform="translate(205,96)"/>
<path d="M0 0 C1.485 0.99 1.485 0.99 3 2 C3.29296875 4.6015625 3.29296875 4.6015625 3.1875 7.625 C3.16042969 8.62789062 3.13335937 9.63078125 3.10546875 10.6640625 C3.07066406 11.43492188 3.03585938 12.20578125 3 13 C2.01 13 1.02 13 0 13 C0 8.71 0 4.42 0 0 Z " fill="#232323" transform="translate(200,94)"/>
<path d="M0 0 C0.89203125 0.00902344 1.7840625 0.01804688 2.703125 0.02734375 C3.37859375 0.03894531 4.0540625 0.05054688 4.75 0.0625 C4.75 0.7225 4.75 1.3825 4.75 2.0625 C1.60069107 3.11226964 -0.63814456 3.16381595 -3.9375 3.125 C-4.93136719 3.11597656 -5.92523438 3.10695312 -6.94921875 3.09765625 C-8.08810547 3.08025391 -8.08810547 3.08025391 -9.25 3.0625 C-9.25 2.4025 -9.25 1.7425 -9.25 1.0625 C-6.09493858 0.12630187 -3.28413498 -0.0432123 0 0 Z " fill="#FCF5F8" transform="translate(83.25,132.9375)"/>
<path d="M0 0 C0.33 0 0.66 0 1 0 C1.22786458 1.98567708 1.45572917 3.97135417 1.68359375 5.95703125 C1.97170735 8.19396393 1.97170735 8.19396393 3 11 C7.14093698 11.20970559 7.14093698 11.20970559 11 10 C10.67 10.99 10.34 11.98 10 13 C4.78074866 13.42780749 4.78074866 13.42780749 2 13 C-0.80467258 10.1076814 -0.98238697 8.26419541 -1.25 4.25 C-1 1 -1 1 0 0 Z " fill="#3D3D3D" transform="translate(131,94)"/>
<path d="M0 0 C2.97 0.33 5.94 0.66 9 1 C8.67 2.32 8.34 3.64 8 5 C8 4.34 8 3.68 8 3 C6.68 2.67 5.36 2.34 4 2 C4 3.32 4 4.64 4 6 C2.68 6 1.36 6 0 6 C0 4.02 0 2.04 0 0 Z " fill="#CFCFCF" transform="translate(160,113)"/>
<path d="M0 0 C0.33 0 0.66 0 1 0 C1 1.65 1 3.3 1 5 C1.66 5 2.32 5 3 5 C2.34 6.65 1.68 8.3 1 10 C-2.375 10.125 -2.375 10.125 -6 10 C-6.66 9.34 -7.32 8.68 -8 8 C-6.02 8 -4.04 8 -2 8 C-1.34 5.36 -0.68 2.72 0 0 Z " fill="#323232" transform="translate(218,96)"/>
<path d="M0 0 C2.92879371 0.62759865 5.36095629 1.58622659 8 3 C5.36 3.66 2.72 4.32 0 5 C0 6.98 0 8.96 0 11 C-0.66 10.67 -1.32 10.34 -2 10 C-2 7.69 -2 5.38 -2 3 C-1.34 3 -0.68 3 0 3 C0 2.01 0 1.02 0 0 Z " fill="#2F2F2F" transform="translate(208,91)"/>
<path d="M0 0 C2.475 0.99 2.475 0.99 5 2 C5 2.66 5 3.32 5 4 C6.65 4.33 8.3 4.66 10 5 C10 6.65 10 8.3 10 10 C9.67 9.34 9.34 8.68 9 8 C8.01 8 7.02 8 6 8 C6 7.34 6 6.68 6 6 C5.38125 5.7525 4.7625 5.505 4.125 5.25 C1.64931313 3.79371361 1.04874998 2.62187494 0 0 Z " fill="#AEEDF7" transform="translate(114,128)"/>
<path d="M0 0 C2.97 0 5.94 0 9 0 C8.01 0.33 7.02 0.66 6 1 C6 3.64 6 6.28 6 9 C5.01 9 4.02 9 3 9 C3 6.36 3 3.72 3 1 C2.01 0.67 1.02 0.34 0 0 Z " fill="#5F6C7B" transform="translate(78,74)"/>
<path d="M0 0 C3.3 0 6.6 0 10 0 C10 0.66 10 1.32 10 2 C10.66 2 11.32 2 12 2 C13 5 13 5 14 8 C12.68 7.67 11.36 7.34 10 7 C9.67 5.02 9.34 3.04 9 1 C6.36 1.33 3.72 1.66 1 2 C1 2.66 1 3.32 1 4 C0.34 4 -0.32 4 -1 4 C-0.67 2.68 -0.34 1.36 0 0 Z " fill="#BEF1F8" transform="translate(68,76)"/>
<path d="M0 0 C1.32 0 2.64 0 4 0 C4 0.66 4 1.32 4 2 C4.66 2 5.32 2 6 2 C6 3.32 6 4.64 6 6 C6.66 6 7.32 6 8 6 C8.33 6.99 8.66 7.98 9 9 C7.02 9 5.04 9 3 9 C3.0928125 7.88625 3.0928125 7.88625 3.1875 6.75 C2.96905704 3.54616994 2.09749995 2.35968744 0 0 Z " fill="#DBF8FB" transform="translate(96,126)"/>
<path d="M0 0 C0.66 0 1.32 0 2 0 C2.125 2.875 2.125 2.875 2 6 C0 8 0 8 -2.625 8.125 C-3.40875 8.08375 -4.1925 8.0425 -5 8 C-5.33 7.01 -5.66 6.02 -6 5 C-5.38125 4.9175 -4.7625 4.835 -4.125 4.75 C-1.81562433 4.18741541 -1.81562433 4.18741541 -0.75 1.9375 C-0.5025 1.298125 -0.255 0.65875 0 0 Z " fill="#E9E9E9" transform="translate(216,95)"/>
<path d="M0 0 C3.09034807 0.19725626 5.27822397 0.51881598 7.875 2.25 C9.37422891 4.58213386 9.22023906 6.28371825 9 9 C8.34 7.68 7.68 6.36 7 5 C6.34 5.66 5.68 6.32 5 7 C4.67 6.01 4.34 5.02 4 4 C0.99152582 2.77479736 0.99152582 2.77479736 -2 2 C-1.34 1.34 -0.68 0.68 0 0 Z " fill="#2E2E2E" transform="translate(231,91)"/>
<path d="M0 0 C3.63 0 7.26 0 11 0 C10.01 1.485 10.01 1.485 9 3 C6.8359375 3.29296875 6.8359375 3.29296875 4.375 3.1875 C3.55773437 3.16042969 2.74046875 3.13335937 1.8984375 3.10546875 C1.27195313 3.07066406 0.64546875 3.03585938 0 3 C0 2.01 0 1.02 0 0 Z " fill="#FCFCFC" transform="translate(168,81)"/>
<path d="M0 0 C0.33 0 0.66 0 1 0 C1 3.96 1 7.92 1 12 C0.34 12 -0.32 12 -1 12 C-1 12.99 -1 13.98 -1 15 C-1.99 14.67 -2.98 14.34 -4 14 C-3.34 14 -2.68 14 -2 14 C-2.33 11.69 -2.66 9.38 -3 7 C-2.34 7.33 -1.68 7.66 -1 8 C-0.67 5.36 -0.34 2.72 0 0 Z " fill="#405474" transform="translate(108,100)"/>
<path d="M0 0 C0.33 0.99 0.66 1.98 1 3 C1.66 3 2.32 3 3 3 C3.625 5.875 3.625 5.875 4 9 C3.34 9.66 2.68 10.32 2 11 C1.34 10.67 0.68 10.34 0 10 C-0.44921875 7.96875 -0.44921875 7.96875 -0.6875 5.5 C-0.77386719 4.6853125 -0.86023438 3.870625 -0.94921875 3.03125 C-0.96597656 2.3609375 -0.98273438 1.690625 -1 1 C-0.67 0.67 -0.34 0.34 0 0 Z " fill="#DBDBDB" transform="translate(190,109)"/>
<path d="M0 0 C0.66 0.33 1.32 0.66 2 1 C2.59355614 3.64860427 2.74209269 6.29197322 3 9 C1.68 9 0.36 9 -1 9 C-1.33 6.36 -1.66 3.72 -2 1 C-1.34 0.67 -0.68 0.34 0 0 Z " fill="#F2FBFC" transform="translate(52,103)"/>
<path d="M0 0 C0.66 0 1.32 0 2 0 C2 1.32 2 2.64 2 4 C2.66 4 3.32 4 4 4 C4 6.31 4 8.62 4 11 C3.34 11 2.68 11 2 11 C1.71125 9.88625 1.4225 8.7725 1.125 7.625 C0.30758671 3.99708908 0.30758671 3.99708908 -2 2 C-1.34 1.34 -0.68 0.68 0 0 Z " fill="#EDEBEA" transform="translate(110,93)"/>
<path d="M0 0 C0.66 0 1.32 0 2 0 C2.1953125 1.98567708 2.390625 3.97135417 2.5859375 5.95703125 C2.92665391 8.29988142 2.92665391 8.29988142 5 11 C3.35 10.67 1.7 10.34 0 10 C-1.125 2.25 -1.125 2.25 0 0 Z " fill="#193855" transform="translate(75,62)"/>
<path d="M0 0 C0.33 0 0.66 0 1 0 C1 2.64 1 5.28 1 8 C-3.455 8.495 -3.455 8.495 -8 9 C-8.33 7.68 -8.66 6.36 -9 5 C-6.69 5.33 -4.38 5.66 -2 6 C-1.34 4.02 -0.68 2.04 0 0 Z " fill="#ABE5F1" transform="translate(124,139)"/>
<path d="M0 0 C5.75 -0.125 5.75 -0.125 8 1 C8 2.32 8 3.64 8 5 C8.66 5 9.32 5 10 5 C9.67 5.99 9.34 6.98 9 8 C8.01 7.34 7.02 6.68 6 6 C6.33 5.01 6.66 4.02 7 3 C4.36 2.67 1.72 2.34 -1 2 C-0.67 1.34 -0.34 0.68 0 0 Z " fill="#FAFBFB" transform="translate(246,88)"/>
<path d="M0 0 C0.33 1.98 0.66 3.96 1 6 C-1.475 5.01 -1.475 5.01 -4 4 C-4 3.34 -4 2.68 -4 2 C-5.65 2 -7.3 2 -9 2 C-9 1.67 -9 1.34 -9 1 C-2.25 0 -2.25 0 0 0 Z " fill="#F3FAFD" transform="translate(111,118)"/>
<path d="M0 0 C0.99 0 1.98 0 3 0 C3 0.66 3 1.32 3 2 C3.66 2 4.32 2 5 2 C5 4 5 4 3.6875 5.625 C2 7 2 7 -1 7 C-1.04254356 5.00045254 -1.04080783 2.99958364 -1 1 C-0.67 0.67 -0.34 0.34 0 0 Z " fill="#F8F8F8" transform="translate(152,95)"/>
<path d="M0 0 C0.556875 0.639375 1.11375 1.27875 1.6875 1.9375 C4.22066561 4.19680987 5.68341424 4.63149047 9 5 C8.67 5.66 8.34 6.32 8 7 C5.1875 7.3125 5.1875 7.3125 2 7 C0.0625 4.625 0.0625 4.625 -1 2 C-0.67 1.34 -0.34 0.68 0 0 Z " fill="#1A1A1A" transform="translate(149,99)"/>
<path d="M0 0 C1.32 0.33 2.64 0.66 4 1 C3.071875 1.3403125 3.071875 1.3403125 2.125 1.6875 C-0.61410209 3.37929835 -1.05024472 4.99244161 -2 8 C-2.66 8 -3.32 8 -4 8 C-3.67 6.02 -3.34 4.04 -3 2 C-2.01 2 -1.02 2 0 2 C0 1.34 0 0.68 0 0 Z " fill="#CAF7FA" transform="translate(62,80)"/>
<path d="M0 0 C3.96 0 7.92 0 12 0 C11.01 1.485 11.01 1.485 10 3 C6.37 2.67 2.74 2.34 -1 2 C-0.67 1.34 -0.34 0.68 0 0 Z " fill="#F9F9F9" transform="translate(229,88)"/>
<path d="M0 0 C0.80824219 0.11085938 1.61648437 0.22171875 2.44921875 0.3359375 C3.37154297 0.47902344 3.37154297 0.47902344 4.3125 0.625 C4.3125 2.605 4.3125 4.585 4.3125 6.625 C3.3225 7.12 3.3225 7.12 2.3125 7.625 C2.6425 6.305 2.9725 4.985 3.3125 3.625 C2.6525 3.625 1.9925 3.625 1.3125 3.625 C1.3125 2.965 1.3125 2.305 1.3125 1.625 C-1.6575 1.625 -4.6275 1.625 -7.6875 1.625 C-4.33422361 -0.61051759 -3.78006343 -0.54783528 0 0 Z " fill="#EBFBFE" transform="translate(76.6875,74.375)"/>
<path d="M0 0 C0 0.66 0 1.32 0 2 C-0.99 2.495 -0.99 2.495 -2 3 C-1.67 3.33 -1.34 3.66 -1 4 C-0.95936168 5.66617115 -0.957279 7.33388095 -1 9 C-1.33 7.68 -1.66 6.36 -2 5 C-2.66 5 -3.32 5 -4 5 C-4 4.34 -4 3.68 -4 3 C-5.32 2.67 -6.64 2.34 -8 2 C-4.91190305 0.23537317 -3.76687864 0 0 0 Z " fill="#44CBE1" transform="translate(104,123)"/>
<path d="M0 0 C0.66 1.32 1.32 2.64 2 4 C1.01 5.485 1.01 5.485 0 7 C-3.625 7.1875 -3.625 7.1875 -7 7 C-7 6.67 -7 6.34 -7 6 C-5.35 5.67 -3.7 5.34 -2 5 C-3.32 4.34 -4.64 3.68 -6 3 C-4.35 3 -2.7 3 -1 3 C-0.67 2.01 -0.34 1.02 0 0 Z " fill="#616161" transform="translate(159,100)"/>
<path d="M0 0 C0.33 0.66 0.66 1.32 1 2 C1.66 2 2.32 2 3 2 C2.67 4.64 2.34 7.28 2 10 C1.01 9.34 0.02 8.68 -1 8 C-0.67 5.36 -0.34 2.72 0 0 Z " fill="#1C1C1C" transform="translate(160,94)"/>
<path d="M0 0 C2.64 0 5.28 0 8 0 C7.67 0.99 7.34 1.98 7 3 C4.69 3 2.38 3 0 3 C0 2.01 0 1.02 0 0 Z " fill="#1E1E1E" transform="translate(169,94)"/>
<path d="M0 0 C0.66 0 1.32 0 2 0 C1.67 1.32 1.34 2.64 1 4 C2.32 3.67 3.64 3.34 5 3 C5.33 3.99 5.66 4.98 6 6 C4.02 6 2.04 6 0 6 C0 5.01 0 4.02 0 3 C-0.66 2.67 -1.32 2.34 -2 2 C-1.34 1.34 -0.68 0.68 0 0 Z " fill="#9E9E9E" transform="translate(179,81)"/>
<path d="M0 0 C2.875 -0.125 2.875 -0.125 6 0 C6.66 0.66 7.32 1.32 8 2 C7.625 4.625 7.625 4.625 7 7 C6.34 7 5.68 7 5 7 C5 6.01 5 5.02 5 4 C4.34 4 3.68 4 3 4 C1.375 2 1.375 2 0 0 Z " fill="#DDF6FE" transform="translate(99,81)"/>
<path d="M0 0 C1.98 0 3.96 0 6 0 C6 1.32 6 2.64 6 4 C3.69 4 1.38 4 -1 4 C-0.67 2.68 -0.34 1.36 0 0 Z " fill="#0D3956" transform="translate(82,70)"/>
<path d="M0 0 C0 1.32 0 2.64 0 4 C-1.65 4.33 -3.3 4.66 -5 5 C-5.33 3.68 -5.66 2.36 -6 1 C-3 0 -3 0 0 0 Z " fill="#D3F7F7" transform="translate(96,127)"/>
<path d="M0 0 C2.475 0.495 2.475 0.495 5 1 C5.33 2.65 5.66 4.3 6 6 C5.01 6.495 5.01 6.495 4 7 C4 6.34 4 5.68 4 5 C3.34 5 2.68 5 2 5 C1.34 3.35 0.68 1.7 0 0 Z " fill="#15B3CC" transform="translate(107,125)"/>
<path d="M0 0 C1.32 0 2.64 0 4 0 C4 1.98 4 3.96 4 6 C2.68 6 1.36 6 0 6 C0 4.02 0 2.04 0 0 Z " fill="#D1D1D1" transform="translate(220,113)"/>
<path d="M0 0 C0.99 0.495 0.99 0.495 2 1 C2.625 4.0625 2.625 4.0625 3 7 C3.66 7 4.32 7 5 7 C5 7.66 5 8.32 5 9 C3.68 9.33 2.36 9.66 1 10 C0.67 6.7 0.34 3.4 0 0 Z " fill="#F5FDFE" transform="translate(109,97)"/>
<path d="M0 0 C2.31 0 4.62 0 7 0 C7 0.99 7 1.98 7 3 C4.36 3 1.72 3 -1 3 C-0.67 2.01 -0.34 1.02 0 0 Z " fill="#E1E1E1" transform="translate(228,94)"/>
<path d="M0 0 C0.99 0 1.98 0 3 0 C3 0.66 3 1.32 3 2 C3.66 2 4.32 2 5 2 C4.67 2.99 4.34 3.98 4 5 C-0.455 4.01 -0.455 4.01 -5 3 C-5 2.67 -5 2.34 -5 2 C-3.35 1.67 -1.7 1.34 0 1 C0 0.67 0 0.34 0 0 Z " fill="#4A4A4A" transform="translate(157,91)"/>
<path d="M0 0 C0.99 0.33 1.98 0.66 3 1 C3.33 2.65 3.66 4.3 4 6 C1.36 6 -1.28 6 -4 6 C-2.68 5.34 -1.36 4.68 0 4 C0 3.67 0 3.34 0 3 C0 2.01 0 1.02 0 0 Z " fill="#0AAEDB" transform="translate(98,83)"/>
<path d="M0 0 C0.66 0.66 1.32 1.32 2 2 C2.66 1.67 3.32 1.34 4 1 C3.75 3.875 3.75 3.875 3 7 C1.02 7.99 1.02 7.99 -1 9 C-0.67 6.03 -0.34 3.06 0 0 Z " fill="#DEDFE9" transform="translate(91,63)"/>
<path d="M0 0 C2.1519437 3.22791555 2.20086443 4.28400809 2 8 C0 8 -2 8 -4 8 C-3.67 7.34 -3.34 6.68 -3 6 C-2.34 6 -1.68 6 -1 6 C-0.67 4.02 -0.34 2.04 0 0 Z " fill="#DFDFDF" transform="translate(163,98)"/>
<path d="M0 0 C0.99 0 1.98 0 3 0 C3 0.66 3 1.32 3 2 C3.66 2 4.32 2 5 2 C4.67 2.66 4.34 3.32 4 4 C0.72724974 4 -1.846632 3.70074844 -5 3 C-5 2.67 -5 2.34 -5 2 C-3.35 1.67 -1.7 1.34 0 1 C0 0.67 0 0.34 0 0 Z " fill="#515151" transform="translate(197,91)"/>
<path d="M0 0 C0.33 0.66 0.66 1.32 1 2 C0.01 3.485 0.01 3.485 -1 5 C-4 5.125 -4 5.125 -7 5 C-7.99 5.495 -7.99 5.495 -9 6 C-9 5.01 -9 4.02 -9 3 C-7.88625 2.87625 -6.7725 2.7525 -5.625 2.625 C-1.96896323 2.3534187 -1.96896323 2.3534187 0 0 Z " fill="#13ABCB" transform="translate(89,82)"/>
<path d="M0 0 C0.66 0 1.32 0 2 0 C2.33 1.65 2.66 3.3 3 5 C2.34 5 1.68 5 1 5 C0.67 6.65 0.34 8.3 0 10 C-0.33 10 -0.66 10 -1 10 C-1.125 2.25 -1.125 2.25 0 0 Z " fill="#B9E3EA" transform="translate(88,72)"/>
<path d="M0 0 C0.33 0.99 0.66 1.98 1 3 C1.99 3.33 2.98 3.66 4 4 C4 4.66 4 5.32 4 6 C1.36 6 -1.28 6 -4 6 C-3.34 5.01 -2.68 4.02 -2 3 C-1.34 3 -0.68 3 0 3 C0 2.01 0 1.02 0 0 Z " fill="#C8DEE0" transform="translate(74,69)"/>
<path d="M0 0 C0.99 0.66 1.98 1.32 3 2 C1.75 3.5 1.75 3.5 0 5 C-1.32 5 -2.64 5 -4 5 C-4 4.01 -4 3.02 -4 2 C-2.68 1.34 -1.36 0.68 0 0 Z " fill="#FAEDEE" transform="translate(68,72)"/>
<path d="M0 0 C3.625 0.375 3.625 0.375 7 1 C6.67 2.32 6.34 3.64 6 5 C5.34 4.67 4.68 4.34 4 4 C4 3.34 4 2.68 4 2 C2.02 2 0.04 2 -2 2 C-1.34 1.34 -0.68 0.68 0 0 Z " fill="#171717" transform="translate(212,91)"/>
<path d="M0 0 C0.66 0 1.32 0 2 0 C2 2.64 2 5.28 2 8 C1.34 8 0.68 8 0 8 C-1.125 2.25 -1.125 2.25 0 0 Z " fill="#274062" transform="translate(56,104)"/>
<path d="M0 0 C0.33 0.66 0.66 1.32 1 2 C-2.625 6.875 -2.625 6.875 -6 8 C-4.73058503 4.08597051 -3.48832306 2.20927127 0 0 Z " fill="#42B5D0" transform="translate(66,80)"/>
<path d="M0 0 C1.98 0 3.96 0 6 0 C6 0.99 6 1.98 6 3 C6.99 3.33 7.98 3.66 9 4 C8.01 4.495 8.01 4.495 7 5 C4.5249829 3.88568235 2.32116581 2.41849022 0 1 C0 0.67 0 0.34 0 0 Z " fill="#D0F6FC" transform="translate(91,76)"/>
<path d="M0 0 C1.32 0.33 2.64 0.66 4 1 C4 2.32 4 3.64 4 5 C2.68 5 1.36 5 0 5 C0 3.35 0 1.7 0 0 Z " fill="#06BCF6" transform="translate(117,139)"/>
<path d="M0 0 C0.33 0.66 0.66 1.32 1 2 C3.32156597 2.40729228 5.6568787 2.74438677 8 3 C8 3.33 8 3.66 8 4 C5.69 3.67 3.38 3.34 1 3 C1.33 3.99 1.66 4.98 2 6 C1.34 6 0.68 6 0 6 C-0.66 4.68 -1.32 3.36 -2 2 C-1.34 2 -0.68 2 0 2 C0 1.34 0 0.68 0 0 Z " fill="#656565" transform="translate(226,100)"/>
<path d="M0 0 C3.71599191 -0.20086443 4.77208445 -0.1519437 8 2 C7.67 3.32 7.34 4.64 7 6 C6.401875 5.38125 5.80375 4.7625 5.1875 4.125 C2.99188856 1.86323046 2.99188856 1.86323046 0 0 Z " fill="#0D0D0D" transform="translate(136,92)"/>
<path d="M0 0 C1.32 0 2.64 0 4 0 C3.67 0.99 3.34 1.98 3 3 C2.34 2.67 1.68 2.34 1 2 C1 2.99 1 3.98 1 5 C-0.32 4.67 -1.64 4.34 -3 4 C-1.75 2 -1.75 2 0 0 Z " fill="#FDFDFD" transform="translate(186,85)"/>
<path d="M0 0 C0.66 0 1.32 0 2 0 C2 0.99 2 1.98 2 3 C1.34 3 0.68 3 0 3 C0 3.66 0 4.32 0 5 C0.66 5.33 1.32 5.66 2 6 C0.68 6 -0.64 6 -2 6 C-1.125 1.125 -1.125 1.125 0 0 Z " fill="#DCF7FB" transform="translate(56,88)"/>
<path d="M0 0 C1.32 0.33 2.64 0.66 4 1 C3.34 2.65 2.68 4.3 2 6 C1.67 5.34 1.34 4.68 1 4 C0.01 3.67 -0.98 3.34 -2 3 C-1.34 2.01 -0.68 1.02 0 0 Z " fill="#01C0F2" transform="translate(70,82)"/>
<path d="M0 0 C0.66 0.33 1.32 0.66 2 1 C1.34 3.64 0.68 6.28 0 9 C-1.3950848 6.70221327 -2.07438619 5.5207033 -1.6875 2.8125 C-1 1 -1 1 0 0 Z " fill="#284666" transform="translate(78,59)"/>
</svg>
